<svg width="39" height="81" viewBox="0 0 39 81" fill="none" xmlns="http://www.w3.org/2000/svg">
<path d="M19.3929 0C8.68399 0 0 8.0718 0 18.0294C0 23.4977 2.6186 28.3961 6.75354 31.7019C8.98038 33.4819 11.6462 34.8004 14.5801 35.4967C14.6188 35.5061 14.6575 35.5147 14.697 35.5242C15.0148 35.5981 15.3362 35.6643 15.6609 35.7227C16.8688 35.9419 18.1163 36.0562 19.3929 36.0562C20.6696 36.0562 21.917 35.9419 23.1249 35.7227C23.4892 35.6565 23.8492 35.5817 24.2057 35.4967C24.2109 35.4958 24.216 35.4941 24.2212 35.4932C27.1491 34.7961 29.8098 33.4794 32.0323 31.701C36.1672 28.3961 38.7858 23.4977 38.7858 18.0294C38.7858 8.0718 30.1019 0 19.3929 0ZM23.6404 24.114C22.9188 24.9692 21.9557 25.5468 20.7512 25.8459V27.9036H18.88V25.9052C17.4831 25.6938 16.4161 25.2451 15.6807 24.5626C14.9478 23.8793 14.4049 22.8264 14.0561 21.4004L16.4092 20.9432C16.7288 21.9497 17.1223 22.67 17.5862 23.0997C18.069 23.5114 18.7151 23.716 19.5218 23.716C20.3285 23.716 20.9625 23.4814 21.4892 23.0103C22.0107 22.5479 22.271 21.948 22.271 21.2122C22.271 20.5538 22.0528 20.0278 21.618 19.6298C21.3972 19.4364 21.0708 19.2207 20.6386 18.9792C20.2065 18.7376 19.6575 18.4729 18.9857 18.1875C17.6025 17.6108 16.6944 17.0822 16.258 16.5966C15.5655 15.8746 15.221 15.0099 15.221 13.9999C15.221 13.5246 15.3035 13.0802 15.4667 12.6685C15.63 12.2568 15.8697 11.8846 16.1772 11.5486C16.4874 11.2151 16.8714 10.9254 17.3285 10.6796C17.7838 10.4338 18.301 10.243 18.88 10.102V8.15259H20.7512V10.102C21.5923 10.2292 22.2821 10.4862 22.8157 10.8773C23.3509 11.2709 23.8612 11.8683 24.3466 12.678L22.2589 13.7636C21.6318 12.7012 20.8113 12.1717 19.8001 12.1717C19.1721 12.1717 18.6506 12.3445 18.2365 12.6892C17.8233 13.0321 17.6163 13.4645 17.6163 13.9819C17.6163 14.4512 17.7838 14.844 18.1197 15.1543C18.4479 15.4603 19.1103 15.8213 20.1103 16.2381C20.972 16.6034 21.6851 16.9464 22.2504 17.2679C22.8131 17.5902 23.2358 17.9005 23.521 18.197C24.3277 19.0067 24.7306 19.984 24.7306 21.1314C24.7306 22.2789 24.3672 23.2536 23.6404 24.114Z" fill="#F6D738"/>
<path d="M35.8297 17.2403C35.8228 17.1097 35.8142 16.9808 35.8022 16.8518C35.791 16.6954 35.7747 16.539 35.7566 16.3825C35.7309 16.1642 35.7016 15.9468 35.6673 15.7319C35.6527 15.6416 35.6372 15.5505 35.6209 15.4603V15.456C35.5633 15.1526 35.4989 14.8509 35.4259 14.5543C35.3889 14.4031 35.3494 14.2509 35.3056 14.1039C35.2549 13.9243 35.2008 13.7455 35.1424 13.5685C33.9645 9.96876 31.3983 6.93206 28.022 4.99727C25.5116 3.55757 22.558 2.72726 19.393 2.72726C10.3043 2.72726 2.93567 9.57768 2.93567 18.0294C2.93567 23.6077 6.14792 28.4889 10.9461 31.1621C13.4152 32.5382 16.3053 33.3289 19.393 33.3289C22.4807 33.3289 25.3707 32.5382 27.8398 31.1621C32.1982 28.7339 35.248 24.4836 35.7704 19.5439C35.7833 19.421 35.7944 19.298 35.8047 19.1743C35.8142 19.0505 35.8228 18.9242 35.8297 18.7969C35.8434 18.5374 35.8511 18.2752 35.8511 18.0105C35.8511 17.7457 35.8434 17.4956 35.8297 17.2403ZM23.6405 24.114C22.9188 24.9692 21.9557 25.5468 20.7512 25.8459V27.9036H18.8801V25.9052C17.4831 25.6938 16.4161 25.2451 15.6807 24.5626C14.9479 23.8793 14.4049 22.8264 14.0561 21.4004L16.4093 20.9432C16.7288 21.9497 17.1223 22.67 17.5862 23.0997C18.0691 23.5114 18.7151 23.716 19.5218 23.716C20.3286 23.716 20.9626 23.4813 21.4892 23.0103C22.0107 22.5479 22.271 21.948 22.271 21.2122C22.271 20.5538 22.0528 20.0278 21.6181 19.6298C21.3973 19.4364 21.0708 19.2207 20.6387 18.9792C20.2066 18.7376 19.6576 18.4729 18.9858 18.1875C17.6026 17.6108 16.6945 17.0822 16.258 16.5966C15.5656 15.8746 15.2211 15.0099 15.2211 13.9999C15.2211 13.5246 15.3036 13.0802 15.4668 12.6685C15.63 12.2568 15.8697 11.8846 16.1773 11.5486C16.4874 11.2151 16.8715 10.9254 17.3285 10.6796C17.7838 10.4338 18.301 10.2429 18.8801 10.102V8.15259H20.7512V10.102C21.5923 10.2292 22.2822 10.4862 22.8157 10.8773C23.3509 11.2709 23.8613 11.8683 24.3467 12.678L22.259 13.7636C21.6318 12.7012 20.8114 12.1717 19.8002 12.1717C19.1722 12.1717 18.6507 12.3445 18.2366 12.6892C17.8234 13.0321 17.6163 13.4644 17.6163 13.9819C17.6163 14.4512 17.7838 14.844 18.1198 15.1543C18.4479 15.4603 19.1103 15.8213 20.1103 16.2381C20.972 16.6034 21.6851 16.9464 22.2504 17.2678C22.8131 17.5902 23.2358 17.9005 23.521 18.197C24.3278 19.0067 24.7307 19.9839 24.7307 21.1314C24.7307 22.2789 24.3673 23.2536 23.6405 24.114Z" fill="#F3CC30"/>
<path d="M24.7307 21.1314C24.7307 22.2583 24.3673 23.2536 23.6404 24.114C22.9188 24.9692 21.9557 25.5468 20.7512 25.8459V27.9036H18.8801V25.9052C17.4831 25.6938 16.4161 25.2451 15.6807 24.5627C14.9479 23.8793 14.4049 22.8264 14.0561 21.4005L16.4092 20.9432C16.7288 21.9497 17.1223 22.67 17.5862 23.0998C18.069 23.5115 18.7151 23.716 19.5218 23.716C20.3285 23.716 20.9626 23.4814 21.4892 23.0104C22.0107 22.5479 22.271 21.948 22.271 21.2122C22.271 20.5538 22.0528 20.0278 21.6181 19.6299C21.3973 19.4365 21.0708 19.2207 20.6387 18.9792C20.2065 18.7377 19.6576 18.4729 18.9857 18.1876C17.6025 17.6108 16.6944 17.0822 16.258 16.5966C15.5656 15.8746 15.2211 15.0099 15.2211 14C15.2211 13.5246 15.3035 13.0803 15.4668 12.6686C15.63 12.2568 15.8697 11.8847 16.1773 11.5486C16.4874 11.2151 16.8714 10.9254 17.3285 10.6796C17.7838 10.4338 18.301 10.243 18.8801 10.102V8.15262H20.7512V10.102C21.5923 10.2292 22.2822 10.4862 22.8157 10.8773C23.3509 11.271 23.8612 11.8683 24.3466 12.678L22.259 13.7636C21.6318 12.7012 20.8114 12.1718 19.8002 12.1718C19.1722 12.1718 18.6507 12.3445 18.2366 12.6892C17.8233 13.0321 17.6163 13.4645 17.6163 13.9819C17.6163 14.4512 17.7838 14.844 18.1197 15.1543C18.4479 15.4603 19.1103 15.8213 20.1103 16.2382C20.972 16.6035 21.6851 16.9464 22.2504 17.2679C22.8131 17.5902 23.2358 17.9005 23.521 18.197C24.3277 19.0067 24.7307 19.984 24.7307 21.1314Z" fill="#1464DF"/>
<path d="M35.8512 18.0105C35.8512 18.2752 35.8435 18.5374 35.8298 18.7969C35.8229 18.9241 35.8143 19.0505 35.8048 19.1743C35.7945 19.298 35.7834 19.4209 35.7705 19.5439C35.2404 24.4896 32.1776 28.7408 27.8064 31.1621C25.3442 32.527 22.467 33.31 19.3931 33.31C16.3191 33.31 13.4402 32.5261 10.978 31.1621C8.77521 29.9415 6.9049 28.256 5.52344 26.2524C8.02863 27.6853 10.978 28.5113 14.1344 28.5113C15.7848 28.5113 17.3776 28.2852 18.8802 27.8649V27.9036H20.7513V27.2229C26.5461 24.8566 30.5917 19.4734 30.5917 13.2117C30.5917 11.8958 30.4147 10.622 30.0771 9.40319C30.0771 9.40319 30.0762 9.40147 30.0762 9.40061C30.0118 9.15994 29.9388 8.92615 29.8606 8.69064V8.6872C29.4242 7.37385 28.8013 6.13527 28.0221 4.99726C28.0152 4.98781 28.01 4.97835 28.0032 4.96976C31.3915 6.90713 33.968 9.955 35.1425 13.5684C35.2009 13.7455 35.255 13.9243 35.3057 14.1039C35.3495 14.2509 35.389 14.403 35.426 14.5543C35.5016 14.8509 35.566 15.1525 35.621 15.456V15.4603C35.6373 15.5505 35.6528 15.6416 35.6674 15.7319C35.7026 15.9476 35.7327 16.1642 35.7567 16.3825C35.7748 16.539 35.7911 16.6954 35.8023 16.8518C35.8143 16.9808 35.8229 17.1097 35.8298 17.2403C35.8435 17.4956 35.8512 17.7535 35.8512 18.0105Z" fill="#EDBD31"/>
<path d="M5.81796 19.4287C5.81796 11.9698 12.3224 5.92215 20.3457 5.92215C25.0356 5.92215 29.2058 7.98845 31.8613 11.1953C29.3527 7.14612 24.6507 4.42056 19.264 4.42056C11.2407 4.42056 4.73633 10.4673 4.73633 17.9271C4.73633 21.0266 5.86006 23.8811 7.7484 26.1605C6.52072 24.1785 5.81796 21.8801 5.81796 19.4287Z" fill="#F7DB5E"/>
<path d="M8.5105 53.1023V57.448C8.5105 59.8074 9.12906 62.1204 10.2983 64.1326L19.3749 79.7544L28.4756 64.1652C29.6526 62.1479 30.2763 59.8263 30.2763 57.4583V53.0997L8.51136 53.1031L8.5105 53.1023Z" fill="white"/>
<path d="M19.4083 69.937C17.471 69.9352 15.6265 70.3547 13.9512 71.1111V71.4618L19.3834 80.8108L24.8336 71.4738V71.1093C23.1678 70.3573 21.3345 69.9387 19.4083 69.937Z" fill="#07293E"/>
<path d="M11.9392 60.0258C13.9917 60.0189 15.6661 58.244 15.6601 56.0797C15.6661 58.2432 17.3508 60.0086 19.4033 60.0017C21.4557 59.9949 23.1301 58.2191 23.1241 56.0557C23.1301 58.2191 24.8149 59.9846 26.8673 59.9777C28.9198 59.9708 30.5942 58.195 30.5882 56.0316L30.5899 35.4726L23.125 35.4967L15.6601 35.5208L8.1952 35.5448L8.19348 56.1038C8.1995 58.2672 9.88423 60.0327 11.9367 60.0258H11.9392Z" fill="#07293E"/>
<path d="M15.6592 56.0797C15.6652 58.2431 17.3499 60.0085 19.4024 60.0017C21.4548 59.9948 23.1292 58.219 23.1232 56.0556C23.1292 58.219 23.1249 35.4966 23.1249 35.4966L15.66 35.5207C15.66 35.5207 15.6652 58.2431 15.6583 56.0797H15.6592Z" fill="#FFC301"/>
<path d="M30.7342 35.4907C31.839 35.4589 32.7351 34.5014 32.7351 33.329C32.7351 32.1566 31.8098 31.1613 30.6783 31.1613H8.10752C6.97605 31.1613 6.05078 32.1368 6.05078 33.329C6.05078 34.5211 6.97605 35.4967 8.10752 35.4967H30.6783C30.6972 35.4967 30.7153 35.4915 30.7342 35.4907Z" fill="white"/>
</svg>
